# xmcd CD database file
#
# Track frame offsets:
#	150
#	10985
#	21630
#	30360
#	41462
#	53220
#	63892
#	74357
#	84740
#	94602
#	104915
#	115242
#	126195
#	136810
#	148500
#	160250
#	171452
#	183047
#	192570
#	204350
#	215505
#	224370
#	236702
#	246937
#	256507
#	267812
#	277900
#	288462
#	297862
#	305667
#	314162
#
# Disc length: 4318 seconds
#
# Revision: 0
# Processed by: cddbd v1.5.2PL0 Copyright (c) Steve Scherf et al.
# Submitted via: CDex 1.51
#
DISCID=da10dc1f
DTITLE=Patsy Cline - Stop, Look and Listen
DYEAR=2008
DGENRE=Country
TTITLE0=I Don't Wanta (1st version) 1959
TTITLE1=Stop, Look and Listen (alt) 1991
TTITLE2=Ain't No Wheels On This Ship (We Can't Roll) 1957
TTITLE3=Stop The World (And Let Me Off) 1958
TTITLE4=Never No More 1958
TTITLE5=Honky Tonk Merry Go Round
TTITLE6=Lovesick Blues
TTITLE7=I Love You, Honey
TTITLE8=Turn The Cards Slowly
TTITLE9=Too Many Secrets
TTITLE10=Walking Dream
TTITLE11=There He Goes
TTITLE12=Gotta Lot of Rhythm In My Soul
TTITLE13=In Care Of The Blues
TTITLE14=Let The Teardrops Fall
TTITLE15=Hungry For Love
TTITLE16=Walkin' After Midnight
TTITLE17=Love, Love, Love Me Honey Do
TTITLE18=Today, Tomorrow And Forever
TTITLE19=Don't Ever Leave Me Again
TTITLE20=Try Again
TTITLE21=A Poor Man's Roses (Or A Rich Man's Gold)
TTITLE22=How Can I Face Tomorrow (without harmony)
TTITLE23=I'm Moving Along
TTITLE24=Crazy Dreams (without harmony)
TTITLE25=I Don't Wanta (faster take)
TTITLE26=Stop, Look and Listen
TTITLE27=Love, Love, Love Me Honey Do (faster take)
TTITLE28=Fore Rent (One Empty Heart)
TTITLE29=Side By Side
TTITLE30=Stupid Cupid
EXTD=YEAR: 2008
EXTT0=
EXTT1=
EXTT2=
EXTT3=
EXTT4=
EXTT5=
EXTT6=
EXTT7=
EXTT8=
EXTT9=
EXTT10=
EXTT11=
EXTT12=
EXTT13=
EXTT14=
EXTT15=
EXTT16=
EXTT17=
EXTT18=
EXTT19=
EXTT20=
EXTT21=
EXTT22=
EXTT23=
EXTT24=
EXTT25=
EXTT26=
EXTT27=
EXTT28=
EXTT29=
EXTT30=
PLAYORDER=
